<svg xmlns="http://www.w3.org/2000/svg" width="32" height="34" viewBox="0 0 32 34">
  <g id="a-search" transform="translate(1 1)">
    <path id="Path" d="M12.6,0A29.284,29.284,0,0,0,2.835,1.789,4.475,4.475,0,0,0,0,6.048V12H14" transform="translate(0 17)" fill="none" stroke="#000" stroke-linecap="round" stroke-linejoin="round" stroke-miterlimit="10" stroke-width="2"/>
    <path id="Path-2" data-name="Path" d="M7,17H7c-3.865,0-7-4.589-7-8.5V7.083A7.043,7.043,0,0,1,7,0H7a7.043,7.043,0,0,1,7,7.083V8.5C14,12.411,10.865,17,7,17Z" transform="translate(6)" fill="none" stroke="#000" stroke-linecap="round" stroke-linejoin="round" stroke-miterlimit="10" stroke-width="2"/>
    <path id="Path-3" data-name="Path" d="M4,4,0,0" transform="translate(26 28)" fill="none" stroke="#000" stroke-linecap="round" stroke-linejoin="round" stroke-miterlimit="10" stroke-width="2"/>
    <circle id="Oval" cx="4.5" cy="4.5" r="4.5" stroke-width="2" transform="translate(18 20)" stroke="#000" stroke-linecap="round" stroke-linejoin="round" stroke-miterlimit="10" fill="none"/>
  </g>
</svg>
